<?xml version="1.0" standalone="no"?><!DOCTYPE svg PUBLIC "-//W3C//DTD SVG 1.1//EN" "http://www.w3.org/Graphics/SVG/1.1/DTD/svg11.dtd"><svg t="1609307455046" class="icon" viewBox="0 0 1024 1024" version="1.1" xmlns="http://www.w3.org/2000/svg" p-id="7200" xmlns:xlink="http://www.w3.org/1999/xlink" width="200" height="200"><defs><style type="text/css"></style></defs><path d="M414.293333 268.373333a42.666667 42.666667 0 0 0-60.586666 0l-213.333334 213.333334a42.666667 42.666667 0 0 0 0 60.586666l213.333334 213.333334a42.666667 42.666667 0 0 0 60.586666 0 42.666667 42.666667 0 0 0 0-60.586667L230.826667 512l183.466666-183.04a42.666667 42.666667 0 0 0 0-60.586667z m469.333334 213.333334l-213.333334-213.333334a42.666667 42.666667 0 0 0-60.586666 60.586667l183.466666 183.04-183.466666 183.04a42.666667 42.666667 0 0 0 0 60.586667 42.666667 42.666667 0 0 0 60.586666 0l213.333334-213.333334a42.666667 42.666667 0 0 0 0-60.586666z" p-id="7201"></path></svg>