<?xml version="1.0" standalone="no"?><!DOCTYPE svg PUBLIC "-//W3C//DTD SVG 1.1//EN" "http://www.w3.org/Graphics/SVG/1.1/DTD/svg11.dtd"><svg t="1609293839609" class="icon" viewBox="0 0 1024 1024" version="1.1" xmlns="http://www.w3.org/2000/svg" p-id="4019" xmlns:xlink="http://www.w3.org/1999/xlink" width="200" height="200"><defs><style type="text/css"></style></defs><path d="M760.7 665.7L608.3 513.2l152.4-152.4-95.3-95.3L513 417.9 360.6 265.5l-95.3 95.3 152.4 152.4-152.4 152.5 95.3 95.2L513 608.5l152.4 152.4z" p-id="4020"></path><path d="M909.1 928.2H116.9c-10.4 0-18.9-8.4-18.9-18.9V117.1c0-10.4 8.4-18.9 18.9-18.9h792.3c10.4 0 18.9 8.4 18.9 18.9v792.3c-0.1 10.4-8.5 18.8-19 18.8z m-773.4-37.7h754.5V136H135.7v754.5z" p-id="4021"></path><path d="M665.4 779.8c-4.8 0-9.7-1.8-13.3-5.5L513 635.2 373.9 774.3c-7.4 7.4-19.3 7.4-26.7 0L252 679c-7.4-7.4-7.4-19.3 0-26.7l139.1-139.1L252 374.1c-3.5-3.5-5.5-8.3-5.5-13.3s2-9.8 5.5-13.3l95.3-95.3c7.4-7.4 19.3-7.4 26.7 0l139 139.1 139.1-139.1c7.4-7.4 19.3-7.4 26.7 0l95.3 95.3c3.5 3.5 5.5 8.3 5.5 13.3s-2 9.8-5.5 13.3L634.9 513.2 774 652.3c7.4 7.4 7.4 19.3 0 26.7l-95.3 95.3c-3.6 3.7-8.4 5.5-13.3 5.5zM513 589.6c4.8 0 9.7 1.8 13.3 5.5l139.1 139.1 68.6-68.6-139.1-139c-7.4-7.4-7.4-19.3 0-26.7L734 360.8l-68.6-68.6-139.1 139.1c-7.4 7.4-19.3 7.4-26.7 0l-139-139.1-68.6 68.6 139.1 139.1c7.4 7.4 7.4 19.3 0 26.7L292 665.7l68.6 68.6 139.1-139.1c3.6-3.7 8.5-5.6 13.3-5.6z" p-id="4022"></path></svg>