<?xml version="1.0" standalone="no"?><!DOCTYPE svg PUBLIC "-//W3C//DTD SVG 1.1//EN" "http://www.w3.org/Graphics/SVG/1.1/DTD/svg11.dtd"><svg t="1604384836437" class="icon" viewBox="0 0 1024 1024" version="1.1" xmlns="http://www.w3.org/2000/svg" p-id="12964" xmlns:xlink="http://www.w3.org/1999/xlink" width="200" height="200"><defs><style type="text/css"></style></defs><path d="M855.461975 155.556177h-441.274829a53.485373 53.485373 0 0 1-37.783557-15.683816l-57.743323-57.743323a53.481373 53.481373 0 0 0-37.783558-15.683817H53.465373C23.93572 66.447221 0 90.380941 0 119.912595v837.640184h855.461975l53.467373-196.043703V209.023551c-0.002-29.531654-23.93572-53.467373-53.467373-53.467374z" p-id="12965"></path><path d="M855.461975 155.556177h-441.274829a53.485373 53.485373 0 0 1-37.783557-15.683816l-57.743323-57.743323a53.481373 53.481373 0 0 0-37.783558-15.683817H53.465373C23.93572 66.447221 0 90.380941 0 119.912595v837.640184h855.461975l53.467373-196.043703V209.023551c-0.002-29.531654-23.93572-53.467373-53.467373-53.467374z" p-id="12966"></path><path d="M106.932747 262.488924h695.061855v588.129108H106.932747z" p-id="12967"></path><path d="M196.043703 351.59988h35.643582v142.576329H196.043703zM285.154658 351.59988h35.643583v142.576329h-35.643583zM374.263614 351.59988h35.643582v142.576329h-35.643582zM463.37457 351.59988h35.643582v142.576329H463.37457z" p-id="12968"></path><path d="M891.105557 957.552779l131.884455-544.109624c4.633946-19.141776-7.127916-38.38955-26.269692-43.023496a35.263587 35.263587 0 0 0-8.305903-0.997988H528.603805a71.291165 71.291165 0 0 0-50.437409 20.851755l-47.407444 47.407445a71.287165 71.287165 0 0 1-50.437409 20.851756H166.458049c-24.523713 0-45.891462 16.681805-51.861392 40.455525L0 957.552779h891.105557z" p-id="12969"></path><path d="M891.105557 957.552779l131.884455-544.109624c4.633946-19.141776-7.127916-38.38955-26.269692-43.023496a35.263587 35.263587 0 0 0-8.305903-0.997988H528.603805a71.291165 71.291165 0 0 0-50.437409 20.851755l-47.407444 47.407445a71.287165 71.287165 0 0 1-50.437409 20.851756H166.458049c-24.523713 0-45.891462 16.681805-51.861392 40.455525L0 957.552779h891.105557z" p-id="12970"></path><path d="M988.414417 369.421671h-79.487068c-93.208908 307.432397-364.105733 486.3663-575.655255 588.129108h557.831463L1022.988012 413.441155c4.633946-19.141776-7.127916-38.38955-26.269692-43.023496a36.435573 36.435573 0 0 0-8.303903-0.995988z" p-id="12971"></path></svg>