<?xml version="1.0" standalone="no"?><!DOCTYPE svg PUBLIC "-//W3C//DTD SVG 1.1//EN" "http://www.w3.org/Graphics/SVG/1.1/DTD/svg11.dtd"><svg t="1604385886226" class="icon" viewBox="0 0 1024 1024" version="1.1" xmlns="http://www.w3.org/2000/svg" p-id="14852" xmlns:xlink="http://www.w3.org/1999/xlink" width="200" height="200"><defs><style type="text/css"></style></defs><path d="M503.954286 430.811429c0.438857-0.292571 1.097143-0.512 1.536-0.731429a52.150857 52.150857 0 0 1-3.876572-7.826286c0.731429 2.852571 1.609143 5.705143 2.267429 8.557715z m195.510857 209.334857V640c-0.146286-0.073143-0.950857-0.073143-1.097143-0.292571 0.219429 0.219429 0.804571 0.219429 1.097143 0.438857z m7.387428 2.121143c-1.974857-0.804571-6.436571 0.585143-8.192-2.486858-1.097143 8.996571 0.512 12.434286 8.192 2.486858zM512 0a512 512 0 1 0 0 1024A512 512 0 0 0 512 0z m327.021714 199.972571c-17.554286 0.585143-29.915429 0.585143-44.105143 10.386286-5.705143 3.949714-9.508571 9.142857-16.822857 11.190857-6.509714 1.828571-13.531429 0.219429-19.968 2.413715-23.259429 7.899429-19.529143 57.782857-50.176 50.176-14.409143-3.510857-24.576-20.48-31.817143-31.597715-6.363429-9.801143-17.993143-17.92-10.166857-30.134857-3.584 0.950857-7.387429-0.146286-10.971428 0.585143 4.973714-10.825143 21.430857-9.874286 24.137143-15.36 6.875429-13.897143-18.724571-15.286857-26.038858-17.188571 8.777143-9.289143 13.165714 3.145143 21.796572 1.024 8.338286-2.048-4.388571-12.946286-9.289143-14.189715-1.828571-0.438857-31.012571 8.045714-14.116571-7.094857l-62.610286-39.862857c-3.510857 14.774857 27.794286 23.186286 38.034286 28.452571-1.609143 6.070857-11.117714 14.994286-18.358858 12.434286-6.875429-2.56-4.096-13.897143-14.482285-12.726857-7.314286 17.188571 15.652571 12.141714 17.773714 22.674286 2.486857 11.995429-8.704 6.875429-12.946286 6.729143-1.024-0.073143-8.996571-8.338286-9.508571-2.121143-0.438857 7.460571 12.8 4.534857 13.750857 12.068571-15.433143 0.585143-23.332571-4.973714-35.84-13.312-14.628571-9.728-22.235429-8.777143-40.228571-8.777143 5.412571-2.194286 12.8-3.876571 17.408-7.460571 2.56-1.901714 12.361143-11.483429 13.019428-13.604572 2.779429-9.216-0.146286-8.557714-8.996571-14.628571-7.826286-5.339429-17.334857-14.921143-26.843429-16.822857-34.377143-6.875429-10.605714 31.085714-36.717714 36.278857h1.316571-1.462857 0.146286c-5.997714-0.219429-17.334857-1.682286-21.211429 1.462857-2.779429 2.267429-2.998857 11.337143-6.070857 14.628572-5.485714 5.778286-13.604571 6.948571-20.114286 11.117714-6.363429 4.096-20.48 14.628571-24.137142 21.796571-13.824 26.331429 31.012571 34.523429 47.981714 42.203429 7.68 3.510857 30.134857 8.265143 34.377143 14.043428 5.558857 7.826286-4.900571 15.140571 6.802285 20.626286 3.803429 1.755429 11.483429 2.121143 14.701715-1.462857 5.266286-5.924571-2.121143-7.314286-3.364572-14.116571-2.413714-13.165714 1.536-7.899429 8.118857-12.726858 13.458286-9.947429 10.459429-10.532571 5.632-26.331428-2.267429-7.387429-10.752-27.940571-3.291428-33.353143 9.728-7.094857 30.427429 3.803429 37.888 4.754286 8.704 1.024 13.604571 13.019429 18.285714 17.993143 3.218286 3.218286 8.777143 10.166857 14.262857 9.435428 8.777143-1.243429 5.12-8.777143 10.166857-12.361143 13.531429-9.362286 17.042286 3.364571 22.454858 16.091429 5.12 12.068571 9.874286 16.457143 18.944 24.137143 4.169143 3.657143 22.601143 16.384 20.845714 24.283428-1.170286 5.266286-22.162286 13.312-27.794286 15.140572-20.553143 6.509714-59.099429-10.678857-63.195428 21.942857 7.972571-2.998857 30.646857-21.504 37.376-12.726857 3.145143 3.949714-2.413714 9.728-1.097143 13.677714 3.876571 11.849143 13.019429 7.753143 22.601143 5.851429a16.822857 16.822857 0 0 1-2.048 1.097142c13.165714-6.729143 11.702857-5.339429 17.773714-16.310857 1.974857-3.510857 4.900571-12.141714 7.606857-14.701714 9.508571-8.777143 10.971429-2.779429 16.896 4.022857 1.536 1.755429 16.091429 22.747429 10.971429 21.723429-16.969143-3.437714-33.28-2.925714-47.323429 6.290285-8.118857 5.412571-15.798857 12.580571-25.453714 16.164572-2.340571 0.877714-19.529143 2.486857-17.554286-0.438857 2.998857-4.315429 13.165714-7.094857 17.261714-11.702857-11.190857-4.608-20.48 5.558857-29.257143 11.483428-9.289143 4.388571-11.483429 12.580571-19.382857 19.748572-3.437714 3.145143-10.020571 3.657143-13.385143 7.826285-3.291429 4.022857-3.657143 10.313143-6.875428 14.116572-2.194286 2.633143-7.753143 1.024-10.020572 5.12-2.998857 5.12 2.706286 10.020571 1.462858 13.897143-2.340571 6.802286-15.36 12.653714-20.406858 17.554285l2.048-1.974857c-5.12 5.266286-11.410286 9.142857-15.36 15.286857 1.828571 8.630857 7.460571 29.184 5.851429 33.938286-5.12 15.506286-15.36-8.484571-19.456-14.701714-14.189714-21.357714-42.422857-7.094857-61.805714-5.266286-24.722286 2.194286-49.005714 34.377143-33.645715 60.342857 7.314286 12.507429 19.602286 17.334857 33.718858 14.482286 12.580571-2.56 16.384-20.187429 28.16-20.48 21.796571-0.585143 0.512 21.284571-1.389715 29.330286-1.755429 7.460571 2.706286 8.118857 10.386286 10.020571 5.632 1.316571 13.677714-2.486857 18.578286 0.731429 3.072 2.048 2.925714 13.238857 7.168 9.728-8.338286 6.948571-6.363429 23.405714 2.194285 29.330285 9.508571 6.582857 20.699429 0.512 30.72 2.998857 18.797714 4.827429 9.801143-1.462857 26.331429-11.410285 11.117714-6.656 12.946286 1.316571 20.553143 1.316571 5.193143 0 8.484571-7.460571 17.188571-5.266286 7.021714 1.755429 9.801143 7.241143 18.285715 8.484572 3.437714 0.512 7.021714-1.316571 10.24-0.950857 15.652571 1.755429 27.648 11.702857 39.936 20.772571 10.093714 7.387429 16.822857 5.851429 28.672 9.289143 8.630857 2.486857 24.576 14.994286 23.771428 25.965714-0.146286 1.974857-7.68 11.849143-8.996571 16.310857 2.194286 1.462857 17.554286-1.901714 22.089143-2.194285-1.462857 1.682286-11.922286 8.996571-11.922286 5.12 0 1.974857 7.387429 6.144 9.216 7.387428 5.485714-17.773714 14.409143-6.290286 25.234286-1.901714 9.216 3.657143 20.48 3.949714 30.281142 6.217143 8.338286 2.048 26.697143 7.606857 32.914286 14.409143 7.314286 8.192 2.194286 21.504-3.291428 29.622857-7.168 10.678857-17.993143 14.774857-22.454858 27.355428-3.584 9.947429-0.877714 19.968-2.925714 31.012572-2.706286 14.921143-4.900571 9.728-14.555428 18.797714-8.045714 7.68-0.146286 6.363429-11.117715 11.264-11.117714 4.900571-20.845714 3.437714-28.525714 15.579429a20.553143 20.553143 0 0 0 0.804571-2.340572c-3.218286 4.534857-4.827429 13.824-6.363428 16.822857-3.876571 7.753143-9.216 12.653714-15.36 19.163429-2.267429 2.413714-23.844571 31.890286-25.088 29.476571-1.609143-3.072-18.578286 3.072-19.382857-1.316571 0.731429 3.657143-0.146286 2.486857 4.096 4.608-3.949714 24.137143-14.116571 27.794286-37.888 28.013714 2.048 11.629714-8.557714 9.289143-13.531429 15.506286-2.925714 3.657143-4.242286 13.897143-6.290286 18.651429-1.243429 2.925714-10.459429 14.848-10.459428 17.188571 0 2.194286 3.072 5.339429 5.997714 8.411429a452.608 452.608 0 0 1-51.126857 7.021714c3.291429-4.096 4.022857-7.68-6.290286-8.192 2.779429-7.460571 9.289143-11.702857 11.995429-19.017143 1.316571-3.437714 0.219429-4.827429 1.316571-8.192 3.803429-11.702857 2.194286-7.314286 0-16.457143-4.973714-21.357714 1.828571-27.209143 7.68-46.811428 5.924571-20.114286 5.412571-46.153143 9.216-67.803429 1.828571-10.386286 4.827429-31.963429 1.170286-41.764571-4.022857-10.971429-21.869714-19.748571-29.988571-27.136-11.629714-10.532571-17.773714-21.942857-26.331429-34.962286-4.388571-6.582857-9.362286-13.165714-12.8-20.333714-7.314286-15.36 0-6.217143 1.243429-15.36 1.170286-8.777143-1.024-16.530286 2.486857-25.746286 3.803429-10.24 13.458286-16.530286 16.603428-26.843429 2.852571-9.142857 0.731429-20.626286-8.777143-23.625143-5.12-1.755429-10.971429 2.194286-16.164571 1.316572a54.930286 54.930286 0 0 1-21.430857-10.971429c-8.045714-6.144-10.971429-16.091429-19.602286-21.942857-7.168-4.827429-12.214857-1.901714-19.894857-4.169143-8.045714-2.340571-12.946286-12.214857-19.382857-15.286857-9.654857-4.608-15.067429 2.048-25.307429 0.731429-8.704-1.170286-21.942857-10.825143-29.988571-14.482286-16.530286-7.314286-26.550857-15.506286-33.133714-32.182857-5.705143-14.409143-13.897143-21.138286-23.625143-33.060572-9.801143-12.141714-12.873143-22.454857-28.013715-25.6-1.755429-0.438857 3.657143 12.653714 4.242286 13.677715 5.412571 10.020571 13.531429 19.163429 20.114286 28.525714 9.581714 13.750857 5.485714 16.310857-4.315429 2.998857-11.190857-15.140571-24.137143-30.281143-33.865143-46.372571-3.657143-6.070857-2.925714-10.020571-8.996571-15.798857-5.851429-5.558857-13.458286-8.265143-19.382857-13.604572-21.211429-19.017143-25.014857-44.470857-22.674286-71.68 0.877714-8.777143 4.022857-15.872 2.633143-24.356571a33.865143 33.865143 0 0 0-10.532571-18.139429l-6.144-9.654857c-4.827429-8.045714-8.557714-15.872-16.164572-22.381714a388.827429 388.827429 0 0 0-26.404571-20.041143 455.314286 455.314286 0 0 1 182.710857-136.630857c0.585143 3.657143 2.194286 7.241143 4.388571 10.678857 5.997714 8.777143 11.629714 8.045714 23.186286 10.532571-1.243429 13.385143-16.896 13.531429-27.501714 12.068572-12.726857-1.755429-26.038857-5.997714-37.010286 5.12 6.070857 3.657143 22.674286 17.846857 20.48 2.998857a206.994286 206.994286 0 0 1 35.766857 0.512c4.754286 0.585143 20.699429 5.924571 25.014857 3.510857 1.828571-1.024 3.730286-10.020571 5.632-12.726857-3.364571 0-7.021714-1.682286-10.386285-1.389714 7.899429-10.093714 15.725714-2.194286 25.746285 2.486857-11.044571 6.656-4.534857 22.674286 6.290286 9.654857 8.777143-10.678857-2.194286-18.432-13.458286-24.722286 11.337143-14.116571 18.285714-15.433143 28.964572 0.585143 1.755429-9.874286 9.728-5.924571 18.066285-5.193143V103.862857c-3.657143 0.073143-7.533714-2.048-11.190857-1.609143 8.484571-13.531429 3.072-16.603429 15.140572-21.065143 9.654857-3.510857 37.229714-0.219429 40.594285-9.289142-19.236571 3.730286-42.496 4.608-59.904 13.385142-7.460571 3.803429-16.457143 15.725714-23.917714 7.972572-7.68-7.972571 5.485714-20.772571 12.214857-24.649143H417.645714A453.12 453.12 0 0 1 573.659429 63.049143c-6.948571 3.657143-1.828571 6.144-6.875429 9.874286-9.728 7.168-26.989714 13.165714-38.546286 17.627428 14.628571 0 50.249143 13.750857 57.051429-6.802286l-14.189714-2.194285c8.850286-5.851429 18.797714-10.605714 29.110857-14.116572a453.046857 453.046857 0 0 1 240.201143 132.608h-1.389715z m82.870857 179.785143c0.877714-1.755429 2.852571-2.413714 3.657143-3.876571 1.682286-3.145143 1.316571-5.266286 3.437715-7.899429 2.194286-2.925714 5.266286-3.657143 7.753142-5.851428a9.142857 9.142857 0 0 0 2.048-2.633143c7.606857 21.065143 13.604571 42.861714 17.993143 65.243428l-0.365714 0.512a37.595429 37.595429 0 0 1-9.801143 1.974858c-5.12 0.219429-8.996571-3.218286-12.726857-6.436572a59.977143 59.977143 0 0 1-10.971429-11.995428c-2.925714-4.534857-1.097143-9.216-0.877714-14.482286 0.146286-4.388571-1.974857-10.605714-0.146286-14.555429z m5.851429 234.788572a139.556571 139.556571 0 0 1-25.380571-27.794286c-6.729143-10.532571-2.56-21.430857-2.121143-33.499429 0.438857-10.166857-4.534857-24.649143-0.219429-33.792 1.974857-4.169143 6.582857-5.558857 8.411429-8.996571 3.949714-7.241143 3.072-12.141714 7.972571-18.358857 5.193143-6.729143 12.288-8.338286 18.066286-13.604572 6.144-5.485714 5.997714-9.801143 9.874286-16.822857a63.780571 63.780571 0 0 1 15.725714-18.285714 454.948571 454.948571 0 0 1-10.093714 185.344c-8.484571-2.194286-15.433143-8.338286-22.235429-14.189714z" p-id="14853"></path></svg>